<?xml version="1.0" encoding="UTF-8" standalone="no"?>
<!DOCTYPE svg PUBLIC "-//W3C//DTD SVG 1.1//EN"
 "http://www.w3.org/Graphics/SVG/1.1/DTD/svg11.dtd">
<!-- Generated by graphviz version 2.40.1 (20161225.0304)
 -->
<!-- Title: %3 Pages: 1 -->
<svg width="357pt" height="332pt"
 viewBox="0.00 0.00 357.24 332.00" xmlns="http://www.w3.org/2000/svg" xmlns:xlink="http://www.w3.org/1999/xlink">
<g id="graph0" class="graph" transform="scale(1 1) rotate(0) translate(4 328)">
<title>%3</title>
<polygon fill="#ffffff" stroke="transparent" points="-4,4 -4,-328 353.2388,-328 353.2388,4 -4,4"/>
<!-- PrinterContract -->
<g id="node1" class="node">
<title>PrinterContract</title>
<ellipse fill="none" stroke="#000000" cx="138.2381" cy="-162" rx="64.7545" ry="18"/>
<text text-anchor="middle" x="138.2381" y="-157.8" font-family="Times,serif" font-size="14.00" fill="#000000">PrinterContract</text>
</g>
<!-- Printer -->
<g id="node2" class="node">
<title>Printer</title>
<ellipse fill="none" stroke="#000000" cx="138.2381" cy="-90" rx="34.3527" ry="18"/>
<text text-anchor="middle" x="138.2381" y="-85.8" font-family="Times,serif" font-size="14.00" fill="#000000">Printer</text>
</g>
<!-- PrinterContract&#45;&gt;Printer -->
<g id="edge1" class="edge">
<title>PrinterContract&#45;&gt;Printer</title>
<path fill="none" stroke="#000000" d="M138.2381,-143.8314C138.2381,-136.131 138.2381,-126.9743 138.2381,-118.4166"/>
<polygon fill="#000000" stroke="#000000" points="141.7382,-118.4132 138.2381,-108.4133 134.7382,-118.4133 141.7382,-118.4132"/>
</g>
<!-- PrinterService -->
<g id="node6" class="node">
<title>PrinterService</title>
<ellipse fill="none" stroke="#000000" cx="264.2381" cy="-90" rx="60.8873" ry="18"/>
<text text-anchor="middle" x="264.2381" y="-85.8" font-family="Times,serif" font-size="14.00" fill="#000000">PrinterService</text>
</g>
<!-- PrinterContract&#45;&gt;PrinterService -->
<g id="edge5" class="edge">
<title>PrinterContract&#45;&gt;PrinterService</title>
<path fill="none" stroke="#000000" d="M166.8295,-145.6621C184.7563,-135.4182 208.045,-122.1104 227.3557,-111.0757"/>
<polygon fill="#000000" stroke="#000000" points="229.248,-114.0255 236.194,-106.0252 225.775,-107.9478 229.248,-114.0255"/>
</g>
<!-- EthereumService -->
<g id="node3" class="node">
<title>EthereumService</title>
<ellipse fill="none" stroke="#000000" cx="278.2381" cy="-234" rx="71.0013" ry="18"/>
<text text-anchor="middle" x="278.2381" y="-229.8" font-family="Times,serif" font-size="14.00" fill="#000000">EthereumService</text>
</g>
<!-- EthereumService&#45;&gt;PrinterContract -->
<g id="edge2" class="edge">
<title>EthereumService&#45;&gt;PrinterContract</title>
<path fill="none" stroke="#000000" d="M246.8194,-217.8418C226.5036,-207.3936 199.8825,-193.7028 178.0844,-182.4923"/>
<polygon fill="#000000" stroke="#000000" points="179.5637,-179.3174 169.07,-177.8564 176.3622,-185.5424 179.5637,-179.3174"/>
</g>
<!-- EthereumService&#45;&gt;PrinterService -->
<g id="edge6" class="edge">
<title>EthereumService&#45;&gt;PrinterService</title>
<path fill="none" stroke="#000000" d="M276.465,-215.7623C274.0771,-191.201 269.8039,-147.2474 266.9948,-118.3541"/>
<polygon fill="#000000" stroke="#000000" points="270.4482,-117.704 265.9969,-108.0896 263.481,-118.3814 270.4482,-117.704"/>
</g>
<!-- Configuration -->
<g id="node4" class="node">
<title>Configuration</title>
<ellipse fill="none" stroke="#000000" cx="59.2381" cy="-306" rx="59.4773" ry="18"/>
<text text-anchor="middle" x="59.2381" y="-301.8" font-family="Times,serif" font-size="14.00" fill="#000000">Configuration</text>
</g>
<!-- Configuration&#45;&gt;PrinterContract -->
<g id="edge3" class="edge">
<title>Configuration&#45;&gt;PrinterContract</title>
<path fill="none" stroke="#000000" d="M43.8915,-288.4391C29.3483,-269.5487 11.7226,-239.1132 26.2381,-216 37.9826,-197.2993 58.2253,-184.9214 78.2991,-176.7994"/>
<polygon fill="#000000" stroke="#000000" points="79.6475,-180.032 87.7893,-173.2525 77.1968,-173.4749 79.6475,-180.032"/>
</g>
<!-- CredentialsService -->
<g id="node5" class="node">
<title>CredentialsService</title>
<ellipse fill="none" stroke="#000000" cx="112.2381" cy="-234" rx="76.7985" ry="18"/>
<text text-anchor="middle" x="112.2381" y="-229.8" font-family="Times,serif" font-size="14.00" fill="#000000">CredentialsService</text>
</g>
<!-- Configuration&#45;&gt;CredentialsService -->
<g id="edge7" class="edge">
<title>Configuration&#45;&gt;CredentialsService</title>
<path fill="none" stroke="#000000" d="M72.3393,-288.2022C78.5821,-279.7214 86.1713,-269.4115 93.048,-260.0696"/>
<polygon fill="#000000" stroke="#000000" points="95.9945,-261.9708 99.104,-251.8425 90.3572,-257.8211 95.9945,-261.9708"/>
</g>
<!-- CredentialsService&#45;&gt;PrinterContract -->
<g id="edge4" class="edge">
<title>CredentialsService&#45;&gt;PrinterContract</title>
<path fill="none" stroke="#000000" d="M118.799,-215.8314C121.6846,-207.8406 125.1364,-198.2819 128.3251,-189.4514"/>
<polygon fill="#000000" stroke="#000000" points="131.6648,-190.5077 131.7694,-179.9134 125.081,-188.1302 131.6648,-190.5077"/>
</g>
<!-- PrintablesController -->
<g id="node7" class="node">
<title>PrintablesController</title>
<ellipse fill="none" stroke="#000000" cx="264.2381" cy="-18" rx="81.6526" ry="18"/>
<text text-anchor="middle" x="264.2381" y="-13.8" font-family="Times,serif" font-size="14.00" fill="#000000">PrintablesController</text>
</g>
<!-- PrinterService&#45;&gt;PrintablesController -->
<g id="edge8" class="edge">
<title>PrinterService&#45;&gt;PrintablesController</title>
<path fill="none" stroke="#000000" d="M264.2381,-71.8314C264.2381,-64.131 264.2381,-54.9743 264.2381,-46.4166"/>
<polygon fill="#000000" stroke="#000000" points="267.7382,-46.4132 264.2381,-36.4133 260.7382,-46.4133 267.7382,-46.4132"/>
</g>
</g>
</svg>
